  0
SECTION
  2
BLOCKS
  0
ENDSEC
  0
SECTION
  2
ENTITIES
  0
LINE
  8
0
 10
127.882
 20
3.2547
 11
131.096
 21
3.53389
  0
LINE
  8
0
 10
131.096
 20
3.53389
 11
134.285
 21
4.01671
  0
LINE
  8
0
 10
134.285
 20
4.01671
 11
137.438
 21
4.70122
  0
LINE
  8
0
 10
137.438
 20
4.70122
 11
140.541
 21
5.58466
  0
LINE
  8
0
 10
140.541
 20
5.58466
 11
143.581
 21
6.66345
  0
LINE
  8
0
 10
143.581
 20
6.66345
 11
146.547
 21
7.93323
  0
LINE
  8
0
 10
146.547
 20
7.93323
 11
128.913
 21
45.7486
  0
LINE
  8
0
 10
128.913
 20
45.7486
 11
128.602
 21
46.6188
  0
LINE
  8
0
 10
128.602
 20
46.6188
 11
128.456
 21
47.5315
  0
LINE
  8
0
 10
128.456
 20
47.5315
 11
128.48
 21
48.4555
  0
LINE
  8
0
 10
128.48
 20
48.4555
 11
128.674
 21
49.3592
  0
LINE
  8
0
 10
128.674
 20
49.3592
 11
129.031
 21
50.2117
  0
LINE
  8
0
 10
129.031
 20
50.2117
 11
129.539
 21
50.9839
  0
LINE
  8
0
 10
129.539
 20
50.9839
 11
130.181
 21
51.6494
  0
LINE
  8
0
 10
130.181
 20
51.6494
 11
130.934
 21
52.1855
  0
LINE
  8
0
 10
130.934
 20
52.1855
 11
133.686
 21
53.904
  0
LINE
  8
0
 10
133.686
 20
53.904
 11
136.323
 21
55.7949
  0
LINE
  8
0
 10
136.323
 20
55.7949
 11
138.834
 21
57.8505
  0
LINE
  8
0
 10
138.834
 20
57.8505
 11
141.209
 21
60.0623
  0
LINE
  8
0
 10
141.209
 20
60.0623
 11
143.437
 21
62.4214
  0
LINE
  8
0
 10
143.437
 20
62.4214
 11
145.51
 21
64.9181
  0
LINE
  8
0
 10
145.51
 20
64.9181
 11
147.419
 21
67.5421
  0
LINE
  8
0
 10
147.419
 20
67.5421
 11
149.156
 21
70.2827
  0
LINE
  8
0
 10
149.156
 20
70.2827
 11
150.715
 21
73.1288
  0
LINE
  8
0
 10
150.715
 20
73.1288
 11
152.089
 21
76.0687
  0
LINE
  8
0
 10
152.089
 20
76.0687
 11
153.272
 21
79.0904
  0
LINE
  8
0
 10
153.272
 20
79.0904
 11
154.259
 21
82.1815
  0
LINE
  8
0
 10
154.259
 20
82.1815
 11
154.998
 21
85.1048
  0
LINE
  8
0
 10
154.998
 20
85.1048
 11
155.562
 21
88.0667
  0
LINE
  8
0
 10
155.562
 20
88.0667
 11
155.949
 21
91.0569
  0
LINE
  8
0
 10
155.949
 20
91.0569
 11
156.157
 21
94.0647
  0
LINE
  8
0
 10
156.157
 20
94.0647
 11
156.182
 21
97.31
  0
LINE
  8
0
 10
156.182
 20
97.31
 11
155.999
 21
100.55
  0
LINE
  8
0
 10
155.999
 20
100.55
 11
155.61
 21
103.772
  0
LINE
  8
0
 10
155.61
 20
103.772
 11
155.015
 21
106.962
  0
LINE
  8
0
 10
155.015
 20
106.962
 11
154.217
 21
110.108
  0
LINE
  8
0
 10
154.217
 20
110.108
 11
153.22
 21
113.197
  0
LINE
  8
0
 10
153.22
 20
113.197
 11
152.028
 21
116.215
  0
LINE
  8
0
 10
152.028
 20
116.215
 11
150.646
 21
119.151
  0
LINE
  8
0
 10
150.646
 20
119.151
 11
149.078
 21
121.993
  0
LINE
  8
0
 10
149.078
 20
121.993
 11
147.332
 21
124.729
  0
LINE
  8
0
 10
147.332
 20
124.729
 11
145.415
 21
127.347
  0
LINE
  8
0
 10
145.415
 20
127.347
 11
143.334
 21
129.838
  0
LINE
  8
0
 10
143.334
 20
129.838
 11
141.098
 21
132.19
  0
LINE
  8
0
 10
141.098
 20
132.19
 11
138.717
 21
134.395
  0
LINE
  8
0
 10
138.717
 20
134.395
 11
136.199
 21
136.443
  0
LINE
  8
0
 10
136.199
 20
136.443
 11
133.556
 21
138.326
  0
LINE
  8
0
 10
133.556
 20
138.326
 11
130.798
 21
140.036
  0
LINE
  8
0
 10
130.798
 20
140.036
 11
127.936
 21
141.567
  0
LINE
  8
0
 10
127.936
 20
141.567
 11
124.982
 21
142.911
  0
LINE
  8
0
 10
124.982
 20
142.911
 11
121.949
 21
144.064
  0
LINE
  8
0
 10
121.949
 20
144.064
 11
118.848
 21
145.021
  0
LINE
  8
0
 10
118.848
 20
145.021
 11
115.692
 21
145.777
  0
LINE
  8
0
 10
115.692
 20
145.777
 11
112.494
 21
146.33
  0
LINE
  8
0
 10
112.494
 20
146.33
 11
109.267
 21
146.678
  0
LINE
  8
0
 10
109.267
 20
146.678
 11
106.025
 21
146.818
  0
LINE
  8
0
 10
106.025
 20
146.818
 11
102.78
 21
146.752
  0
LINE
  8
0
 10
102.78
 20
146.752
 11
99.5462
 21
146.477
  0
LINE
  8
0
 10
99.5462
 20
146.477
 11
96.3366
 21
145.997
  0
LINE
  8
0
 10
96.3366
 20
145.997
 11
93.1642
 21
145.313
  0
LINE
  8
0
 10
93.1642
 20
145.313
 11
90.0421
 21
144.427
  0
LINE
  8
0
 10
90.0421
 20
144.427
 11
86.9829
 21
143.344
  0
LINE
  8
0
 10
86.9829
 20
143.344
 11
83.9993
 21
142.067
  0
LINE
  8
0
 10
83.9993
 20
142.067
 11
101.633
 21
104.251
  0
LINE
  8
0
 10
101.633
 20
104.251
 11
101.944
 21
103.381
  0
LINE
  8
0
 10
101.944
 20
103.381
 11
102.09
 21
102.468
  0
LINE
  8
0
 10
102.09
 20
102.468
 11
102.066
 21
101.545
  0
LINE
  8
0
 10
102.066
 20
101.545
 11
101.872
 21
100.641
  0
LINE
  8
0
 10
101.872
 20
100.641
 11
101.515
 21
99.7883
  0
LINE
  8
0
 10
101.515
 20
99.7883
 11
101.007
 21
99.0161
  0
LINE
  8
0
 10
101.007
 20
99.0161
 11
100.365
 21
98.3506
  0
LINE
  8
0
 10
100.365
 20
98.3506
 11
99.6124
 21
97.8145
  0
LINE
  8
0
 10
99.6124
 20
97.8145
 11
96.8755
 21
96.1066
  0
LINE
  8
0
 10
96.8755
 20
96.1066
 11
94.2527
 21
94.2281
  0
LINE
  8
0
 10
94.2527
 20
94.2281
 11
91.7545
 21
92.1869
  0
LINE
  8
0
 10
91.7545
 20
92.1869
 11
89.3911
 21
89.991
  0
LINE
  8
0
 10
89.3911
 20
89.991
 11
87.172
 21
87.6494
  0
LINE
  8
0
 10
87.172
 20
87.6494
 11
85.1061
 21
85.1715
  0
LINE
  8
0
 10
85.1061
 20
85.1715
 11
83.2018
 21
82.5674
  0
LINE
  8
0
 10
83.2018
 20
82.5674
 11
81.4669
 21
79.8476
  0
LINE
  8
0
 10
81.4669
 20
79.8476
 11
79.9082
 21
77.023
  0
LINE
  8
0
 10
79.9082
 20
77.023
 11
78.5322
 21
74.1051
  0
LINE
  8
0
 10
78.5322
 20
74.1051
 11
77.3443
 21
71.1057
  0
LINE
  8
0
 10
77.3443
 20
71.1057
 11
76.3494
 21
68.0368
  0
LINE
  8
0
 10
76.3494
 20
68.0368
 11
75.5515
 21
64.911
  0
LINE
  8
0
 10
75.5515
 20
64.911
 11
74.9538
 21
61.7407
  0
LINE
  8
0
 10
74.9538
 20
61.7407
 11
74.5588
 21
58.5389
  0
LINE
  8
0
 10
74.5588
 20
58.5389
 11
74.368
 21
55.3185
  0
LINE
  8
0
 10
74.368
 20
55.3185
 11
74.3821
 21
52.0924
  0
LINE
  8
0
 10
74.3821
 20
52.0924
 11
74.6012
 21
48.8738
  0
LINE
  8
0
 10
74.6012
 20
48.8738
 11
75.0244
 21
45.6756
  0
LINE
  8
0
 10
75.0244
 20
45.6756
 11
75.6499
 21
42.5107
  0
LINE
  8
0
 10
75.6499
 20
42.5107
 11
76.4753
 21
39.392
  0
LINE
  8
0
 10
76.4753
 20
39.392
 11
77.4971
 21
36.332
  0
LINE
  8
0
 10
77.4971
 20
36.332
 11
78.7113
 21
33.3432
  0
LINE
  8
0
 10
78.7113
 20
33.3432
 11
80.1129
 21
30.4375
  0
LINE
  8
0
 10
80.1129
 20
30.4375
 11
81.6963
 21
27.6267
  0
LINE
  8
0
 10
81.6963
 20
27.6267
 11
83.4551
 21
24.9222
  0
LINE
  8
0
 10
83.4551
 20
24.9222
 11
85.3822
 21
22.3349
  0
LINE
  8
0
 10
85.3822
 20
22.3349
 11
87.4698
 21
19.8753
  0
LINE
  8
0
 10
87.4698
 20
19.8753
 11
89.7094
 21
17.5533
  0
LINE
  8
0
 10
89.7094
 20
17.5533
 11
92.092
 21
15.3783
  0
LINE
  8
0
 10
92.092
 20
15.3783
 11
94.608
 21
13.3591
  0
LINE
  8
0
 10
94.608
 20
13.3591
 11
97.2472
 21
11.5038
  0
LINE
  8
0
 10
97.2472
 20
11.5038
 11
99.999
 21
9.81989
  0
LINE
  8
0
 10
99.999
 20
9.81989
 11
102.852
 21
8.31425
  0
LINE
  8
0
 10
102.852
 20
8.31425
 11
105.795
 21
6.99295
  0
LINE
  8
0
 10
105.795
 20
6.99295
 11
108.816
 21
5.8613
  0
LINE
  8
0
 10
108.816
 20
5.8613
 11
111.903
 21
4.92389
  0
LINE
  8
0
 10
111.903
 20
4.92389
 11
115.043
 21
4.18449
  0
LINE
  8
0
 10
115.043
 20
4.18449
 11
118.224
 21
3.64612
  0
LINE
  8
0
 10
118.224
 20
3.64612
 11
121.433
 21
3.31093
  0
LINE
  8
0
 10
121.433
 20
3.31093
 11
124.656
 21
3.18028
  0
LINE
  8
0
 10
124.656
 20
3.18028
 11
127.882
 21
3.2547
  0
LINE
  8
0
 10
125.64
 20
98.2103
 11
124.055
 21
98.4467
  0
LINE
  8
0
 10
124.055
 20
98.4467
 11
122.514
 21
98.8838
  0
LINE
  8
0
 10
122.514
 20
98.8838
 11
121.042
 21
99.5144
  0
LINE
  8
0
 10
121.042
 20
99.5144
 11
119.662
 21
100.328
  0
LINE
  8
0
 10
119.662
 20
100.328
 11
118.398
 21
101.311
  0
LINE
  8
0
 10
118.398
 20
101.311
 11
117.27
 21
102.448
  0
LINE
  8
0
 10
117.27
 20
102.448
 11
116.296
 21
103.72
  0
LINE
  8
0
 10
116.296
 20
103.72
 11
115.493
 21
105.106
  0
LINE
  8
0
 10
115.493
 20
105.106
 11
114.874
 21
106.584
  0
LINE
  8
0
 10
114.874
 20
106.584
 11
114.449
 21
108.128
  0
LINE
  8
0
 10
114.449
 20
108.128
 11
114.225
 21
109.714
  0
LINE
  8
0
 10
114.225
 20
109.714
 11
114.206
 21
111.316
  0
LINE
  8
0
 10
114.206
 20
111.316
 11
114.391
 21
112.907
  0
LINE
  8
0
 10
114.391
 20
112.907
 11
114.779
 21
114.461
  0
LINE
  8
0
 10
114.779
 20
114.461
 11
115.362
 21
115.953
  0
LINE
  8
0
 10
115.362
 20
115.953
 11
116.131
 21
117.358
  0
LINE
  8
0
 10
116.131
 20
117.358
 11
117.073
 21
118.653
  0
LINE
  8
0
 10
117.073
 20
118.653
 11
118.173
 21
119.817
  0
LINE
  8
0
 10
118.173
 20
119.817
 11
119.414
 21
120.831
  0
LINE
  8
0
 10
119.414
 20
120.831
 11
120.773
 21
121.678
  0
LINE
  8
0
 10
120.773
 20
121.678
 11
122.23
 21
122.344
  0
LINE
  8
0
 10
122.23
 20
122.344
 11
123.76
 21
122.818
  0
LINE
  8
0
 10
123.76
 20
122.818
 11
125.338
 21
123.093
  0
LINE
  8
0
 10
125.338
 20
123.093
 11
126.938
 21
123.164
  0
LINE
  8
0
 10
126.938
 20
123.164
 11
128.534
 21
123.029
  0
LINE
  8
0
 10
128.534
 20
123.029
 11
130.1
 21
122.692
  0
LINE
  8
0
 10
130.1
 20
122.692
 11
131.61
 21
122.157
  0
LINE
  8
0
 10
131.61
 20
122.157
 11
133.039
 21
121.433
  0
LINE
  8
0
 10
133.039
 20
121.433
 11
134.363
 21
120.533
  0
LINE
  8
0
 10
134.363
 20
120.533
 11
135.562
 21
119.47
  0
LINE
  8
0
 10
135.562
 20
119.47
 11
136.615
 21
118.264
  0
LINE
  8
0
 10
136.615
 20
118.264
 11
137.505
 21
116.932
  0
LINE
  8
0
 10
137.505
 20
116.932
 11
138.218
 21
115.497
  0
LINE
  8
0
 10
138.218
 20
115.497
 11
138.741
 21
113.983
  0
LINE
  8
0
 10
138.741
 20
113.983
 11
139.066
 21
112.415
  0
LINE
  8
0
 10
139.066
 20
112.415
 11
139.188
 21
110.818
  0
LINE
  8
0
 10
139.188
 20
110.818
 11
139.105
 21
109.218
  0
LINE
  8
0
 10
139.105
 20
109.218
 11
138.818
 21
107.642
  0
LINE
  8
0
 10
138.818
 20
107.642
 11
138.331
 21
106.116
  0
LINE
  8
0
 10
138.331
 20
106.116
 11
137.654
 21
104.665
  0
LINE
  8
0
 10
137.654
 20
104.665
 11
136.796
 21
103.312
  0
LINE
  8
0
 10
136.796
 20
103.312
 11
135.773
 21
102.08
  0
LINE
  8
0
 10
135.773
 20
102.08
 11
134.6
 21
100.989
  0
LINE
  8
0
 10
134.6
 20
100.989
 11
133.298
 21
100.056
  0
LINE
  8
0
 10
133.298
 20
100.056
 11
131.887
 21
99.2982
  0
LINE
  8
0
 10
131.887
 20
99.2982
 11
130.391
 21
98.7269
  0
LINE
  8
0
 10
130.391
 20
98.7269
 11
128.833
 21
98.3515
  0
LINE
  8
0
 10
128.833
 20
98.3515
 11
127.241
 21
98.1784
  0
LINE
  8
0
 10
127.241
 20
98.1784
 11
125.64
 21
98.2103
  0
LINE
  8
0
 10
136.835
 20
82.5694
 11
135.857
 21
82.8286
  0
LINE
  8
0
 10
135.857
 20
82.8286
 11
134.951
 21
83.2793
  0
LINE
  8
0
 10
134.951
 20
83.2793
 11
134.155
 21
83.9032
  0
LINE
  8
0
 10
134.155
 20
83.9032
 11
133.5
 21
84.6746
  0
LINE
  8
0
 10
133.5
 20
84.6746
 11
133.014
 21
85.562
  0
LINE
  8
0
 10
133.014
 20
85.562
 11
132.717
 21
86.529
  0
LINE
  8
0
 10
132.717
 20
86.529
 11
132.62
 21
87.536
  0
LINE
  8
0
 10
132.62
 20
87.536
 11
132.728
 21
88.5419
  0
LINE
  8
0
 10
132.728
 20
88.5419
 11
133.037
 21
89.5054
  0
LINE
  8
0
 10
133.037
 20
89.5054
 11
133.533
 21
90.3872
  0
LINE
  8
0
 10
133.533
 20
90.3872
 11
134.196
 21
91.151
  0
LINE
  8
0
 10
134.196
 20
91.151
 11
135
 21
91.7657
  0
LINE
  8
0
 10
135
 20
91.7657
 11
135.911
 21
92.206
  0
LINE
  8
0
 10
135.911
 20
92.206
 11
136.891
 21
92.4539
  0
LINE
  8
0
 10
136.891
 20
92.4539
 11
137.902
 21
92.4993
  0
LINE
  8
0
 10
137.902
 20
92.4993
 11
138.901
 21
92.3404
  0
LINE
  8
0
 10
138.901
 20
92.3404
 11
139.848
 21
91.9836
  0
LINE
  8
0
 10
139.848
 20
91.9836
 11
140.703
 21
91.4435
  0
LINE
  8
0
 10
140.703
 20
91.4435
 11
141.433
 21
90.7423
  0
LINE
  8
0
 10
141.433
 20
90.7423
 11
142.006
 21
89.9087
  0
LINE
  8
0
 10
142.006
 20
89.9087
 11
142.399
 21
88.9767
  0
LINE
  8
0
 10
142.399
 20
88.9767
 11
142.597
 21
87.9846
  0
LINE
  8
0
 10
142.597
 20
87.9846
 11
142.591
 21
86.9729
  0
LINE
  8
0
 10
142.591
 20
86.9729
 11
142.382
 21
85.9831
  0
LINE
  8
0
 10
142.382
 20
85.9831
 11
141.978
 21
85.0557
  0
LINE
  8
0
 10
141.978
 20
85.0557
 11
141.395
 21
84.2287
  0
LINE
  8
0
 10
141.395
 20
84.2287
 11
140.658
 21
83.5359
  0
LINE
  8
0
 10
140.658
 20
83.5359
 11
139.796
 21
83.0057
  0
LINE
  8
0
 10
139.796
 20
83.0057
 11
138.846
 21
82.6598
  0
LINE
  8
0
 10
138.846
 20
82.6598
 11
137.845
 21
82.5123
  0
LINE
  8
0
 10
137.845
 20
82.5123
 11
136.835
 21
82.5694
  0
LINE
  8
0
 10
114.402
 20
61.2776
 11
112.723
 21
61.4886
  0
LINE
  8
0
 10
112.723
 20
61.4886
 11
111.081
 21
61.9044
  0
LINE
  8
0
 10
111.081
 20
61.9044
 11
109.504
 21
62.5188
  0
LINE
  8
0
 10
109.504
 20
62.5188
 11
108.014
 21
63.3223
  0
LINE
  8
0
 10
108.014
 20
63.3223
 11
106.634
 21
64.3029
  0
LINE
  8
0
 10
106.634
 20
64.3029
 11
105.385
 21
65.4456
  0
LINE
  8
0
 10
105.385
 20
65.4456
 11
104.286
 21
66.7332
  0
LINE
  8
0
 10
104.286
 20
66.7332
 11
103.353
 21
68.1461
  0
LINE
  8
0
 10
103.353
 20
68.1461
 11
102.601
 21
69.6629
  0
LINE
  8
0
 10
102.601
 20
69.6629
 11
102.041
 21
71.2605
  0
LINE
  8
0
 10
102.041
 20
71.2605
 11
101.682
 21
72.9149
  0
LINE
  8
0
 10
101.682
 20
72.9149
 11
101.529
 21
74.6009
  0
LINE
  8
0
 10
101.529
 20
74.6009
 11
101.584
 21
76.2929
  0
LINE
  8
0
 10
101.584
 20
76.2929
 11
101.847
 21
77.9653
  0
LINE
  8
0
 10
101.847
 20
77.9653
 11
102.313
 21
79.5928
  0
LINE
  8
0
 10
102.313
 20
79.5928
 11
102.975
 21
81.1507
  0
LINE
  8
0
 10
102.975
 20
81.1507
 11
103.824
 21
82.6153
  0
LINE
  8
0
 10
103.824
 20
82.6153
 11
104.847
 21
83.9645
  0
LINE
  8
0
 10
104.847
 20
83.9645
 11
106.028
 21
85.1777
  0
LINE
  8
0
 10
106.028
 20
85.1777
 11
107.348
 21
86.2368
  0
LINE
  8
0
 10
107.348
 20
86.2368
 11
108.789
 21
87.1254
  0
LINE
  8
0
 10
108.789
 20
87.1254
 11
110.329
 21
87.8303
  0
LINE
  8
0
 10
110.329
 20
87.8303
 11
111.943
 21
88.3406
  0
LINE
  8
0
 10
111.943
 20
88.3406
 11
113.607
 21
88.6487
  0
LINE
  8
0
 10
113.607
 20
88.6487
 11
115.297
 21
88.75
  0
LINE
  8
0
 10
115.297
 20
88.75
 11
116.987
 21
88.6428
  0
LINE
  8
0
 10
116.987
 20
88.6428
 11
118.65
 21
88.3288
  0
LINE
  8
0
 10
118.65
 20
88.3288
 11
120.263
 21
87.8127
  0
LINE
  8
0
 10
120.263
 20
87.8127
 11
121.799
 21
87.1024
  0
LINE
  8
0
 10
121.799
 20
87.1024
 11
123.237
 21
86.2086
  0
LINE
  8
0
 10
123.237
 20
86.2086
 11
124.554
 21
85.145
  0
LINE
  8
0
 10
124.554
 20
85.145
 11
125.731
 21
83.9275
  0
LINE
  8
0
 10
125.731
 20
83.9275
 11
126.748
 21
82.5747
  0
LINE
  8
0
 10
126.748
 20
82.5747
 11
127.592
 21
81.1071
  0
LINE
  8
0
 10
127.592
 20
81.1071
 11
128.249
 21
79.5469
  0
LINE
  8
0
 10
128.249
 20
79.5469
 11
128.71
 21
77.9178
  0
LINE
  8
0
 10
128.71
 20
77.9178
 11
128.967
 21
76.2444
  0
LINE
  8
0
 10
128.967
 20
76.2444
 11
129.016
 21
74.5522
  0
LINE
  8
0
 10
129.016
 20
74.5522
 11
128.857
 21
72.8668
  0
LINE
  8
0
 10
128.857
 20
72.8668
 11
128.491
 21
71.2137
  0
LINE
  8
0
 10
128.491
 20
71.2137
 11
127.926
 21
69.618
  0
LINE
  8
0
 10
127.926
 20
69.618
 11
127.169
 21
68.1039
  0
LINE
  8
0
 10
127.169
 20
68.1039
 11
126.231
 21
66.6944
  0
LINE
  8
0
 10
126.231
 20
66.6944
 11
125.127
 21
65.4107
  0
LINE
  8
0
 10
125.127
 20
65.4107
 11
123.874
 21
64.2724
  0
LINE
  8
0
 10
123.874
 20
64.2724
 11
122.491
 21
63.2967
  0
LINE
  8
0
 10
122.491
 20
63.2967
 11
120.998
 21
62.4984
  0
LINE
  8
0
 10
120.998
 20
62.4984
 11
119.418
 21
61.8897
  0
LINE
  8
0
 10
119.418
 20
61.8897
 11
117.776
 21
61.4797
  0
LINE
  8
0
 10
117.776
 20
61.4797
 11
116.095
 21
61.2746
  0
LINE
  8
0
 10
116.095
 20
61.2746
 11
114.402
 21
61.2776
  0
LINE
  8
0
 10
91.6449
 20
57.6596
 11
90.6982
 21
58.0164
  0
LINE
  8
0
 10
90.6982
 20
58.0164
 11
89.8427
 21
58.5564
  0
LINE
  8
0
 10
89.8427
 20
58.5564
 11
89.1135
 21
59.2577
  0
LINE
  8
0
 10
89.1135
 20
59.2577
 11
88.5403
 21
60.0913
  0
LINE
  8
0
 10
88.5403
 20
60.0913
 11
88.1467
 21
61.0233
  0
LINE
  8
0
 10
88.1467
 20
61.0233
 11
87.9487
 21
62.0154
  0
LINE
  8
0
 10
87.9487
 20
62.0154
 11
87.9546
 21
63.0271
  0
LINE
  8
0
 10
87.9546
 20
63.0271
 11
88.1639
 21
64.0169
  0
LINE
  8
0
 10
88.1639
 20
64.0169
 11
88.5682
 21
64.9443
  0
LINE
  8
0
 10
88.5682
 20
64.9443
 11
89.1509
 21
65.7713
  0
LINE
  8
0
 10
89.1509
 20
65.7713
 11
89.8882
 21
66.4641
  0
LINE
  8
0
 10
89.8882
 20
66.4641
 11
90.7498
 21
66.9943
  0
LINE
  8
0
 10
90.7498
 20
66.9943
 11
91.7005
 21
67.3402
  0
LINE
  8
0
 10
91.7005
 20
67.3402
 11
92.7014
 21
67.4876
  0
LINE
  8
0
 10
92.7014
 20
67.4876
 11
93.7114
 21
67.4306
  0
LINE
  8
0
 10
93.7114
 20
67.4306
 11
94.6893
 21
67.1714
  0
LINE
  8
0
 10
94.6893
 20
67.1714
 11
95.5951
 21
66.7206
  0
LINE
  8
0
 10
95.5951
 20
66.7206
 11
96.3915
 21
66.0968
  0
LINE
  8
0
 10
96.3915
 20
66.0968
 11
97.0461
 21
65.3254
  0
LINE
  8
0
 10
97.0461
 20
65.3254
 11
97.532
 21
64.438
  0
LINE
  8
0
 10
97.532
 20
64.438
 11
97.8293
 21
63.471
  0
LINE
  8
0
 10
97.8293
 20
63.471
 11
97.9258
 21
62.4639
  0
LINE
  8
0
 10
97.9258
 20
62.4639
 11
97.8177
 21
61.4581
  0
LINE
  8
0
 10
97.8177
 20
61.4581
 11
97.5093
 21
60.4945
  0
LINE
  8
0
 10
97.5093
 20
60.4945
 11
97.0133
 21
59.6128
  0
LINE
  8
0
 10
97.0133
 20
59.6128
 11
96.3499
 21
58.849
  0
LINE
  8
0
 10
96.3499
 20
58.849
 11
95.5463
 21
58.2343
  0
LINE
  8
0
 10
95.5463
 20
58.2343
 11
94.6355
 21
57.794
  0
LINE
  8
0
 10
94.6355
 20
57.794
 11
93.6546
 21
57.5461
  0
LINE
  8
0
 10
93.6546
 20
57.5461
 11
92.644
 21
57.5006
  0
LINE
  8
0
 10
92.644
 20
57.5006
 11
91.6449
 21
57.6596
  0
LINE
  8
0
 10
102.012
 20
26.9708
 11
100.446
 21
27.3082
  0
LINE
  8
0
 10
100.446
 20
27.3082
 11
98.9364
 21
27.8431
  0
LINE
  8
0
 10
98.9364
 20
27.8431
 11
97.5074
 21
28.5667
  0
LINE
  8
0
 10
97.5074
 20
28.5667
 11
96.1827
 21
29.4671
  0
LINE
  8
0
 10
96.1827
 20
29.4671
 11
94.984
 21
30.5295
  0
LINE
  8
0
 10
94.984
 20
30.5295
 11
93.9309
 21
31.7365
  0
LINE
  8
0
 10
93.9309
 20
31.7365
 11
93.0409
 21
33.0682
  0
LINE
  8
0
 10
93.0409
 20
33.0682
 11
92.3285
 21
34.5028
  0
LINE
  8
0
 10
92.3285
 20
34.5028
 11
91.8054
 21
36.0167
  0
LINE
  8
0
 10
91.8054
 20
36.0167
 11
91.4801
 21
37.5851
  0
LINE
  8
0
 10
91.4801
 20
37.5851
 11
91.3581
 21
39.1822
  0
LINE
  8
0
 10
91.3581
 20
39.1822
 11
91.4413
 21
40.7818
  0
LINE
  8
0
 10
91.4413
 20
40.7818
 11
91.7285
 21
42.3576
  0
LINE
  8
0
 10
91.7285
 20
42.3576
 11
92.2147
 21
43.8838
  0
LINE
  8
0
 10
92.2147
 20
43.8838
 11
92.8921
 21
45.3353
  0
LINE
  8
0
 10
92.8921
 20
45.3353
 11
93.7496
 21
46.6882
  0
LINE
  8
0
 10
93.7496
 20
46.6882
 11
94.773
 21
47.9203
  0
LINE
  8
0
 10
94.773
 20
47.9203
 11
95.9456
 21
49.0115
  0
LINE
  8
0
 10
95.9456
 20
49.0115
 11
97.2481
 21
49.9437
  0
LINE
  8
0
 10
97.2481
 20
49.9437
 11
98.6591
 21
50.7018
  0
LINE
  8
0
 10
98.6591
 20
50.7018
 11
100.156
 21
51.2732
  0
LINE
  8
0
 10
100.156
 20
51.2732
 11
101.713
 21
51.6485
  0
LINE
  8
0
 10
101.713
 20
51.6485
 11
103.305
 21
51.8216
  0
LINE
  8
0
 10
103.305
 20
51.8216
 11
104.906
 21
51.7897
  0
LINE
  8
0
 10
104.906
 20
51.7897
 11
106.491
 21
51.5533
  0
LINE
  8
0
 10
106.491
 20
51.5533
 11
108.032
 21
51.1162
  0
LINE
  8
0
 10
108.032
 20
51.1162
 11
109.504
 21
50.4856
  0
LINE
  8
0
 10
109.504
 20
50.4856
 11
110.884
 21
49.672
  0
LINE
  8
0
 10
110.884
 20
49.672
 11
112.148
 21
48.6885
  0
LINE
  8
0
 10
112.148
 20
48.6885
 11
113.276
 21
47.5515
  0
LINE
  8
0
 10
113.276
 20
47.5515
 11
114.25
 21
46.2796
  0
LINE
  8
0
 10
114.25
 20
46.2796
 11
115.053
 21
44.8936
  0
LINE
  8
0
 10
115.053
 20
44.8936
 11
115.672
 21
43.4163
  0
LINE
  8
0
 10
115.672
 20
43.4163
 11
116.097
 21
41.8719
  0
LINE
  8
0
 10
116.097
 20
41.8719
 11
116.321
 21
40.2859
  0
LINE
  8
0
 10
116.321
 20
40.2859
 11
116.34
 21
38.6843
  0
LINE
  8
0
 10
116.34
 20
38.6843
 11
116.155
 21
37.0933
  0
LINE
  8
0
 10
116.155
 20
37.0933
 11
115.767
 21
35.5391
  0
LINE
  8
0
 10
115.767
 20
35.5391
 11
115.184
 21
34.0473
  0
LINE
  8
0
 10
115.184
 20
34.0473
 11
114.415
 21
32.6422
  0
LINE
  8
0
 10
114.415
 20
32.6422
 11
113.473
 21
31.347
  0
LINE
  8
0
 10
113.473
 20
31.347
 11
112.373
 21
30.183
  0
LINE
  8
0
 10
112.373
 20
30.183
 11
111.132
 21
29.1692
  0
LINE
  8
0
 10
111.132
 20
29.1692
 11
109.773
 21
28.3223
  0
LINE
  8
0
 10
109.773
 20
28.3223
 11
108.316
 21
27.6562
  0
LINE
  8
0
 10
108.316
 20
27.6562
 11
106.786
 21
27.1819
  0
LINE
  8
0
 10
106.786
 20
27.1819
 11
105.208
 21
26.9071
  0
LINE
  8
0
 10
105.208
 20
26.9071
 11
103.608
 21
26.8363
  0
LINE
  8
0
 10
103.608
 20
26.8363
 11
102.012
 21
26.9708
  0
ENDSEC
  0
SECTION
  2
OBJECTS
  0
DICTIONARY
  0
ENDSEC
  0
EOF
