  0
SECTION
  2
BLOCKS
  0
ENDSEC
  0
SECTION
  2
ENTITIES
  0
LINE
  8
0
 10
178.865
 20
0.135757
 11
172.742
 21
0.542801
  0
LINE
  8
0
 10
172.742
 20
0.542801
 11
166.643
 21
1.22031
  0
LINE
  8
0
 10
166.643
 20
1.22031
 11
160.58
 21
2.16696
  0
LINE
  8
0
 10
160.58
 20
2.16696
 11
154.565
 21
3.38091
  0
LINE
  8
0
 10
154.565
 20
3.38091
 11
148.61
 21
4.85977
  0
LINE
  8
0
 10
148.61
 20
4.85977
 11
142.725
 21
6.60066
  0
LINE
  8
0
 10
142.725
 20
6.60066
 11
136.924
 21
8.60016
  0
LINE
  8
0
 10
136.924
 20
8.60016
 11
131.217
 21
10.8543
  0
LINE
  8
0
 10
131.217
 20
10.8543
 11
125.614
 21
13.3588
  0
LINE
  8
0
 10
125.614
 20
13.3588
 11
123.464
 21
14.5448
  0
LINE
  8
0
 10
123.464
 20
14.5448
 11
121.475
 21
15.9855
  0
LINE
  8
0
 10
121.475
 20
15.9855
 11
119.677
 21
17.659
  0
LINE
  8
0
 10
119.677
 20
17.659
 11
118.099
 21
19.5403
  0
LINE
  8
0
 10
118.099
 20
19.5403
 11
116.762
 21
21.6008
  0
LINE
  8
0
 10
116.762
 20
21.6008
 11
115.689
 21
23.8096
  0
LINE
  8
0
 10
115.689
 20
23.8096
 11
114.894
 21
26.1334
  0
LINE
  8
0
 10
114.894
 20
26.1334
 11
114.39
 21
28.5371
  0
LINE
  8
0
 10
114.39
 20
28.5371
 11
114.184
 21
30.9844
  0
LINE
  8
0
 10
114.184
 20
30.9844
 11
114.28
 21
33.4385
  0
LINE
  8
0
 10
114.28
 20
33.4385
 11
114.676
 21
35.8623
  0
LINE
  8
0
 10
114.676
 20
35.8623
 11
115.366
 21
38.2193
  0
LINE
  8
0
 10
115.366
 20
38.2193
 11
116.34
 21
40.474
  0
LINE
  8
0
 10
116.34
 20
40.474
 11
117.582
 21
42.5923
  0
LINE
  8
0
 10
117.582
 20
42.5923
 11
131.87
 21
63.8399
  0
LINE
  8
0
 10
131.87
 20
63.8399
 11
133.094
 21
65.9218
  0
LINE
  8
0
 10
133.094
 20
65.9218
 11
134.058
 21
68.1361
  0
LINE
  8
0
 10
134.058
 20
68.1361
 11
134.749
 21
70.4504
  0
LINE
  8
0
 10
134.749
 20
70.4504
 11
135.155
 21
72.8311
  0
LINE
  8
0
 10
135.155
 20
72.8311
 11
135.272
 21
75.2435
  0
LINE
  8
0
 10
135.272
 20
75.2435
 11
135.096
 21
77.6522
  0
LINE
  8
0
 10
135.096
 20
77.6522
 11
134.632
 21
80.0223
  0
LINE
  8
0
 10
134.632
 20
80.0223
 11
133.886
 21
82.3192
  0
LINE
  8
0
 10
133.886
 20
82.3192
 11
132.868
 21
84.5094
  0
LINE
  8
0
 10
132.868
 20
84.5094
 11
131.593
 21
86.5608
  0
LINE
  8
0
 10
131.593
 20
86.5608
 11
130.081
 21
88.4437
  0
LINE
  8
0
 10
130.081
 20
88.4437
 11
128.352
 21
90.1306
  0
LINE
  8
0
 10
128.352
 20
90.1306
 11
126.433
 21
91.5968
  0
LINE
  8
0
 10
126.433
 20
91.5968
 11
124.351
 21
92.821
  0
LINE
  8
0
 10
124.351
 20
92.821
 11
122.137
 21
93.7853
  0
LINE
  8
0
 10
122.137
 20
93.7853
 11
119.823
 21
94.4757
  0
LINE
  8
0
 10
119.823
 20
94.4757
 11
117.442
 21
94.882
  0
LINE
  8
0
 10
117.442
 20
94.882
 11
115.03
 21
94.9985
  0
LINE
  8
0
 10
115.03
 20
94.9985
 11
112.621
 21
94.8233
  0
LINE
  8
0
 10
112.621
 20
94.8233
 11
110.251
 21
94.3591
  0
LINE
  8
0
 10
110.251
 20
94.3591
 11
107.954
 21
93.6126
  0
LINE
  8
0
 10
107.954
 20
93.6126
 11
105.764
 21
92.5947
  0
LINE
  8
0
 10
105.764
 20
92.5947
 11
103.712
 21
91.3201
  0
LINE
  8
0
 10
103.712
 20
91.3201
 11
101.829
 21
89.8077
  0
LINE
  8
0
 10
101.829
 20
89.8077
 11
100.142
 21
88.0792
  0
LINE
  8
0
 10
100.142
 20
88.0792
 11
98.6762
 21
86.1601
  0
LINE
  8
0
 10
98.6762
 20
86.1601
 11
80.0324
 21
58.4339
  0
LINE
  8
0
 10
80.0324
 20
58.4339
 11
78.2773
 21
56.0811
  0
LINE
  8
0
 10
78.2773
 20
56.0811
 11
76.3007
 21
53.9111
  0
LINE
  8
0
 10
76.3007
 20
53.9111
 11
74.1215
 21
51.9447
  0
LINE
  8
0
 10
74.1215
 20
51.9447
 11
71.7605
 21
50.2006
  0
LINE
  8
0
 10
71.7605
 20
50.2006
 11
69.2404
 21
48.6957
  0
LINE
  8
0
 10
69.2404
 20
48.6957
 11
66.5853
 21
47.4442
  0
LINE
  8
0
 10
66.5853
 20
47.4442
 11
63.8206
 21
46.4581
  0
LINE
  8
0
 10
63.8206
 20
46.4581
 11
60.9727
 21
45.747
  0
LINE
  8
0
 10
60.9727
 20
45.747
 11
58.069
 21
45.3176
  0
LINE
  8
0
 10
58.069
 20
45.3176
 11
55.1373
 21
45.174
  0
LINE
  8
0
 10
55.1373
 20
45.174
 11
-17.413
 21
45.174
  0
LINE
  8
0
 10
-17.413
 20
45.174
 11
-40
 21
0
  0
LINE
  8
0
 10
-40
 20
0
 11
185
 21
0
  0
LINE
  8
0
 10
185
 20
0
 11
178.865
 21
0.135757
  0
LINE
  8
0
 10
114.911
 20
83.1477
 11
114.573
 21
83.2876
  0
LINE
  8
0
 10
114.573
 20
83.2876
 11
114.283
 21
83.51
  0
LINE
  8
0
 10
114.283
 20
83.51
 11
114.061
 21
83.8
  0
LINE
  8
0
 10
114.061
 20
83.8
 11
113.921
 21
84.1376
  0
LINE
  8
0
 10
113.921
 20
84.1376
 11
113.873
 21
84.5
  0
LINE
  8
0
 10
113.873
 20
84.5
 11
113.921
 21
84.8624
  0
LINE
  8
0
 10
113.921
 20
84.8624
 11
114.061
 21
85.2
  0
LINE
  8
0
 10
114.061
 20
85.2
 11
114.283
 21
85.4899
  0
LINE
  8
0
 10
114.283
 20
85.4899
 11
114.573
 21
85.7124
  0
LINE
  8
0
 10
114.573
 20
85.7124
 11
114.911
 21
85.8523
  0
LINE
  8
0
 10
114.911
 20
85.8523
 11
115.273
 21
85.9
  0
LINE
  8
0
 10
115.273
 20
85.9
 11
115.635
 21
85.8523
  0
LINE
  8
0
 10
115.635
 20
85.8523
 11
115.973
 21
85.7124
  0
LINE
  8
0
 10
115.973
 20
85.7124
 11
116.263
 21
85.4899
  0
LINE
  8
0
 10
116.263
 20
85.4899
 11
116.485
 21
85.2
  0
LINE
  8
0
 10
116.485
 20
85.2
 11
116.625
 21
84.8624
  0
LINE
  8
0
 10
116.625
 20
84.8624
 11
116.673
 21
84.5
  0
LINE
  8
0
 10
116.673
 20
84.5
 11
116.625
 21
84.1376
  0
LINE
  8
0
 10
116.625
 20
84.1376
 11
116.485
 21
83.8
  0
LINE
  8
0
 10
116.485
 20
83.8
 11
116.263
 21
83.51
  0
LINE
  8
0
 10
116.263
 20
83.51
 11
115.973
 21
83.2876
  0
LINE
  8
0
 10
115.973
 20
83.2876
 11
115.635
 21
83.1477
  0
LINE
  8
0
 10
115.635
 20
83.1477
 11
115.273
 21
83.1
  0
LINE
  8
0
 10
115.273
 20
83.1
 11
114.911
 21
83.1477
  0
LINE
  8
0
 10
106.911
 20
73.6092
 11
106.573
 21
73.749
  0
LINE
  8
0
 10
106.573
 20
73.749
 11
106.283
 21
73.9715
  0
LINE
  8
0
 10
106.283
 20
73.9715
 11
106.061
 21
74.2615
  0
LINE
  8
0
 10
106.061
 20
74.2615
 11
105.921
 21
74.5991
  0
LINE
  8
0
 10
105.921
 20
74.5991
 11
105.873
 21
74.9615
  0
LINE
  8
0
 10
105.873
 20
74.9615
 11
105.921
 21
75.3238
  0
LINE
  8
0
 10
105.921
 20
75.3238
 11
106.061
 21
75.6615
  0
LINE
  8
0
 10
106.061
 20
75.6615
 11
106.283
 21
75.9514
  0
LINE
  8
0
 10
106.283
 20
75.9514
 11
106.573
 21
76.1739
  0
LINE
  8
0
 10
106.573
 20
76.1739
 11
106.911
 21
76.3138
  0
LINE
  8
0
 10
106.911
 20
76.3138
 11
107.273
 21
76.3615
  0
LINE
  8
0
 10
107.273
 20
76.3615
 11
107.635
 21
76.3138
  0
LINE
  8
0
 10
107.635
 20
76.3138
 11
107.973
 21
76.1739
  0
LINE
  8
0
 10
107.973
 20
76.1739
 11
108.263
 21
75.9514
  0
LINE
  8
0
 10
108.263
 20
75.9514
 11
108.485
 21
75.6615
  0
LINE
  8
0
 10
108.485
 20
75.6615
 11
108.625
 21
75.3238
  0
LINE
  8
0
 10
108.625
 20
75.3238
 11
108.673
 21
74.9615
  0
LINE
  8
0
 10
108.673
 20
74.9615
 11
108.625
 21
74.5991
  0
LINE
  8
0
 10
108.625
 20
74.5991
 11
108.485
 21
74.2615
  0
LINE
  8
0
 10
108.485
 20
74.2615
 11
108.263
 21
73.9715
  0
LINE
  8
0
 10
108.263
 20
73.9715
 11
107.973
 21
73.749
  0
LINE
  8
0
 10
107.973
 20
73.749
 11
107.635
 21
73.6092
  0
LINE
  8
0
 10
107.635
 20
73.6092
 11
107.273
 21
73.5614
  0
LINE
  8
0
 10
107.273
 20
73.5614
 11
106.911
 21
73.6092
  0
LINE
  8
0
 10
122.911
 20
73.609
 11
122.573
 21
73.7489
  0
LINE
  8
0
 10
122.573
 20
73.7489
 11
122.283
 21
73.9714
  0
LINE
  8
0
 10
122.283
 20
73.9714
 11
122.061
 21
74.2613
  0
LINE
  8
0
 10
122.061
 20
74.2613
 11
121.921
 21
74.599
  0
LINE
  8
0
 10
121.921
 20
74.599
 11
121.873
 21
74.9613
  0
LINE
  8
0
 10
121.873
 20
74.9613
 11
121.921
 21
75.3237
  0
LINE
  8
0
 10
121.921
 20
75.3237
 11
122.061
 21
75.6613
  0
LINE
  8
0
 10
122.061
 20
75.6613
 11
122.283
 21
75.9513
  0
LINE
  8
0
 10
122.283
 20
75.9513
 11
122.573
 21
76.1738
  0
LINE
  8
0
 10
122.573
 20
76.1738
 11
122.911
 21
76.3136
  0
LINE
  8
0
 10
122.911
 20
76.3136
 11
123.273
 21
76.3613
  0
LINE
  8
0
 10
123.273
 20
76.3613
 11
123.635
 21
76.3136
  0
LINE
  8
0
 10
123.635
 20
76.3136
 11
123.973
 21
76.1738
  0
LINE
  8
0
 10
123.973
 20
76.1738
 11
124.263
 21
75.9513
  0
LINE
  8
0
 10
124.263
 20
75.9513
 11
124.485
 21
75.6613
  0
LINE
  8
0
 10
124.485
 20
75.6613
 11
124.625
 21
75.3237
  0
LINE
  8
0
 10
124.625
 20
75.3237
 11
124.673
 21
74.9613
  0
LINE
  8
0
 10
124.673
 20
74.9613
 11
124.625
 21
74.599
  0
LINE
  8
0
 10
124.625
 20
74.599
 11
124.485
 21
74.2613
  0
LINE
  8
0
 10
124.485
 20
74.2613
 11
124.263
 21
73.9714
  0
LINE
  8
0
 10
124.263
 20
73.9714
 11
123.973
 21
73.7489
  0
LINE
  8
0
 10
123.973
 20
73.7489
 11
123.635
 21
73.609
  0
LINE
  8
0
 10
123.635
 20
73.609
 11
123.273
 21
73.5613
  0
LINE
  8
0
 10
123.273
 20
73.5613
 11
122.911
 21
73.609
  0
LINE
  8
0
 10
114.911
 20
64.1477
 11
114.573
 21
64.2876
  0
LINE
  8
0
 10
114.573
 20
64.2876
 11
114.283
 21
64.51
  0
LINE
  8
0
 10
114.283
 20
64.51
 11
114.061
 21
64.8
  0
LINE
  8
0
 10
114.061
 20
64.8
 11
113.921
 21
65.1376
  0
LINE
  8
0
 10
113.921
 20
65.1376
 11
113.873
 21
65.5
  0
LINE
  8
0
 10
113.873
 20
65.5
 11
113.921
 21
65.8624
  0
LINE
  8
0
 10
113.921
 20
65.8624
 11
114.061
 21
66.2
  0
LINE
  8
0
 10
114.061
 20
66.2
 11
114.283
 21
66.4899
  0
LINE
  8
0
 10
114.283
 20
66.4899
 11
114.573
 21
66.7124
  0
LINE
  8
0
 10
114.573
 20
66.7124
 11
114.911
 21
66.8523
  0
LINE
  8
0
 10
114.911
 20
66.8523
 11
115.273
 21
66.9
  0
LINE
  8
0
 10
115.273
 20
66.9
 11
115.635
 21
66.8523
  0
LINE
  8
0
 10
115.635
 20
66.8523
 11
115.973
 21
66.7124
  0
LINE
  8
0
 10
115.973
 20
66.7124
 11
116.263
 21
66.4899
  0
LINE
  8
0
 10
116.263
 20
66.4899
 11
116.485
 21
66.2
  0
LINE
  8
0
 10
116.485
 20
66.2
 11
116.625
 21
65.8624
  0
LINE
  8
0
 10
116.625
 20
65.8624
 11
116.673
 21
65.5
  0
LINE
  8
0
 10
116.673
 20
65.5
 11
116.625
 21
65.1376
  0
LINE
  8
0
 10
116.625
 20
65.1376
 11
116.485
 21
64.8
  0
LINE
  8
0
 10
116.485
 20
64.8
 11
116.263
 21
64.51
  0
LINE
  8
0
 10
116.263
 20
64.51
 11
115.973
 21
64.2876
  0
LINE
  8
0
 10
115.973
 20
64.2876
 11
115.635
 21
64.1477
  0
LINE
  8
0
 10
115.635
 20
64.1477
 11
115.273
 21
64.1
  0
LINE
  8
0
 10
115.273
 20
64.1
 11
114.911
 21
64.1477
  0
LINE
  8
0
 10
15.4761
 20
40.8217
 11
15.1384
 21
40.9616
  0
LINE
  8
0
 10
15.1384
 20
40.9616
 11
14.8484
 21
41.1841
  0
LINE
  8
0
 10
14.8484
 20
41.1841
 11
14.626
 21
41.474
  0
LINE
  8
0
 10
14.626
 20
41.474
 11
14.4861
 21
41.8116
  0
LINE
  8
0
 10
14.4861
 20
41.8116
 11
14.4384
 21
42.174
  0
LINE
  8
0
 10
14.4384
 20
42.174
 11
14.4861
 21
42.5363
  0
LINE
  8
0
 10
14.4861
 20
42.5363
 11
14.626
 21
42.874
  0
LINE
  8
0
 10
14.626
 20
42.874
 11
14.8484
 21
43.1639
  0
LINE
  8
0
 10
14.8484
 20
43.1639
 11
15.1384
 21
43.3864
  0
LINE
  8
0
 10
15.1384
 20
43.3864
 11
15.4761
 21
43.5263
  0
LINE
  8
0
 10
15.4761
 20
43.5263
 11
15.8384
 21
43.574
  0
LINE
  8
0
 10
15.8384
 20
43.574
 11
16.2007
 21
43.5263
  0
LINE
  8
0
 10
16.2007
 20
43.5263
 11
16.5384
 21
43.3864
  0
LINE
  8
0
 10
16.5384
 20
43.3864
 11
16.8284
 21
43.1639
  0
LINE
  8
0
 10
16.8284
 20
43.1639
 11
17.0508
 21
42.874
  0
LINE
  8
0
 10
17.0508
 20
42.874
 11
17.1907
 21
42.5363
  0
LINE
  8
0
 10
17.1907
 20
42.5363
 11
17.2384
 21
42.174
  0
LINE
  8
0
 10
17.2384
 20
42.174
 11
17.1907
 21
41.8116
  0
LINE
  8
0
 10
17.1907
 20
41.8116
 11
17.0508
 21
41.474
  0
LINE
  8
0
 10
17.0508
 20
41.474
 11
16.8284
 21
41.1841
  0
LINE
  8
0
 10
16.8284
 20
41.1841
 11
16.5384
 21
40.9616
  0
LINE
  8
0
 10
16.5384
 20
40.9616
 11
16.2007
 21
40.8217
  0
LINE
  8
0
 10
16.2007
 20
40.8217
 11
15.8384
 21
40.774
  0
LINE
  8
0
 10
15.8384
 20
40.774
 11
15.4761
 21
40.8217
  0
LINE
  8
0
 10
-16.2007
 20
40.8217
 11
-16.5384
 21
40.9616
  0
LINE
  8
0
 10
-16.5384
 20
40.9616
 11
-16.8284
 21
41.1841
  0
LINE
  8
0
 10
-16.8284
 20
41.1841
 11
-17.0508
 21
41.474
  0
LINE
  8
0
 10
-17.0508
 20
41.474
 11
-17.1907
 21
41.8116
  0
LINE
  8
0
 10
-17.1907
 20
41.8116
 11
-17.2384
 21
42.174
  0
LINE
  8
0
 10
-17.2384
 20
42.174
 11
-17.1907
 21
42.5363
  0
LINE
  8
0
 10
-17.1907
 20
42.5363
 11
-17.0508
 21
42.874
  0
LINE
  8
0
 10
-17.0508
 20
42.874
 11
-16.8284
 21
43.1639
  0
LINE
  8
0
 10
-16.8284
 20
43.1639
 11
-16.5384
 21
43.3864
  0
LINE
  8
0
 10
-16.5384
 20
43.3864
 11
-16.2007
 21
43.5263
  0
LINE
  8
0
 10
-16.2007
 20
43.5263
 11
-15.8384
 21
43.574
  0
LINE
  8
0
 10
-15.8384
 20
43.574
 11
-15.4761
 21
43.5263
  0
LINE
  8
0
 10
-15.4761
 20
43.5263
 11
-15.1384
 21
43.3864
  0
LINE
  8
0
 10
-15.1384
 20
43.3864
 11
-14.8484
 21
43.1639
  0
LINE
  8
0
 10
-14.8484
 20
43.1639
 11
-14.626
 21
42.874
  0
LINE
  8
0
 10
-14.626
 20
42.874
 11
-14.4861
 21
42.5363
  0
LINE
  8
0
 10
-14.4861
 20
42.5363
 11
-14.4384
 21
42.174
  0
LINE
  8
0
 10
-14.4384
 20
42.174
 11
-14.4861
 21
41.8116
  0
LINE
  8
0
 10
-14.4861
 20
41.8116
 11
-14.626
 21
41.474
  0
LINE
  8
0
 10
-14.626
 20
41.474
 11
-14.8484
 21
41.1841
  0
LINE
  8
0
 10
-14.8484
 20
41.1841
 11
-15.1384
 21
40.9616
  0
LINE
  8
0
 10
-15.1384
 20
40.9616
 11
-15.4761
 21
40.8217
  0
LINE
  8
0
 10
-15.4761
 20
40.8217
 11
-15.8384
 21
40.774
  0
LINE
  8
0
 10
-15.8384
 20
40.774
 11
-16.2007
 21
40.8217
  0
LINE
  8
0
 10
39.476
 20
38.8217
 11
39.1384
 21
38.9616
  0
LINE
  8
0
 10
39.1384
 20
38.9616
 11
38.8484
 21
39.1841
  0
LINE
  8
0
 10
38.8484
 20
39.1841
 11
38.626
 21
39.474
  0
LINE
  8
0
 10
38.626
 20
39.474
 11
38.4861
 21
39.8116
  0
LINE
  8
0
 10
38.4861
 20
39.8116
 11
38.4384
 21
40.174
  0
LINE
  8
0
 10
38.4384
 20
40.174
 11
38.4861
 21
40.5363
  0
LINE
  8
0
 10
38.4861
 20
40.5363
 11
38.626
 21
40.874
  0
LINE
  8
0
 10
38.626
 20
40.874
 11
38.8484
 21
41.1639
  0
LINE
  8
0
 10
38.8484
 20
41.1639
 11
39.1384
 21
41.3864
  0
LINE
  8
0
 10
39.1384
 20
41.3864
 11
39.476
 21
41.5263
  0
LINE
  8
0
 10
39.476
 20
41.5263
 11
39.8384
 21
41.574
  0
LINE
  8
0
 10
39.8384
 20
41.574
 11
40.2007
 21
41.5263
  0
LINE
  8
0
 10
40.2007
 20
41.5263
 11
40.5384
 21
41.3864
  0
LINE
  8
0
 10
40.5384
 20
41.3864
 11
40.8284
 21
41.1639
  0
LINE
  8
0
 10
40.8284
 20
41.1639
 11
41.0508
 21
40.874
  0
LINE
  8
0
 10
41.0508
 20
40.874
 11
41.1907
 21
40.5363
  0
LINE
  8
0
 10
41.1907
 20
40.5363
 11
41.2384
 21
40.174
  0
LINE
  8
0
 10
41.2384
 20
40.174
 11
41.1907
 21
39.8116
  0
LINE
  8
0
 10
41.1907
 20
39.8116
 11
41.0508
 21
39.474
  0
LINE
  8
0
 10
41.0508
 20
39.474
 11
40.8284
 21
39.1841
  0
LINE
  8
0
 10
40.8284
 20
39.1841
 11
40.5384
 21
38.9616
  0
LINE
  8
0
 10
40.5384
 20
38.9616
 11
40.2007
 21
38.8217
  0
LINE
  8
0
 10
40.2007
 20
38.8217
 11
39.8384
 21
38.774
  0
LINE
  8
0
 10
39.8384
 20
38.774
 11
39.476
 21
38.8217
  0
LINE
  8
0
 10
-27.0557
 20
5
 11
-27.8104
 21
5.09648
  0
LINE
  8
0
 10
-27.8104
 20
5.09648
 11
-28.5166
 21
5.37973
  0
LINE
  8
0
 10
-28.5166
 20
5.37973
 11
-29.1288
 21
5.83153
  0
LINE
  8
0
 10
-29.1288
 20
5.83153
 11
-29.6077
 21
6.42281
  0
LINE
  8
0
 10
-29.6077
 20
6.42281
 11
-29.9224
 21
7.11552
  0
LINE
  8
0
 10
-29.9224
 20
7.11552
 11
-30.0527
 21
7.86514
  0
LINE
  8
0
 10
-30.0527
 20
7.86514
 11
-29.9902
 21
8.62344
  0
LINE
  8
0
 10
-29.9902
 20
8.62344
 11
-29.739
 21
9.34163
  0
LINE
  8
0
 10
-29.739
 20
9.34163
 11
-15.152
 21
38.5156
  0
LINE
  8
0
 10
-15.152
 20
38.5156
 11
-14.7918
 21
39.0722
  0
LINE
  8
0
 10
-14.7918
 20
39.0722
 11
-14.3182
 21
39.5361
  0
LINE
  8
0
 10
-14.3182
 20
39.5361
 11
-13.7543
 21
39.8846
  0
LINE
  8
0
 10
-13.7543
 20
39.8846
 11
-13.1276
 21
40.1008
  0
LINE
  8
0
 10
-13.1276
 20
40.1008
 11
-12.4687
 21
40.174
  0
LINE
  8
0
 10
-12.4687
 20
40.174
 11
12.4687
 21
40.174
  0
LINE
  8
0
 10
12.4687
 20
40.174
 11
13.1276
 21
40.1008
  0
LINE
  8
0
 10
13.1276
 20
40.1008
 11
13.7543
 21
39.8846
  0
LINE
  8
0
 10
13.7543
 20
39.8846
 11
14.3182
 21
39.5361
  0
LINE
  8
0
 10
14.3182
 20
39.5361
 11
14.7918
 21
39.0722
  0
LINE
  8
0
 10
14.7918
 20
39.0722
 11
15.152
 21
38.5156
  0
LINE
  8
0
 10
15.152
 20
38.5156
 11
29.739
 21
9.34163
  0
LINE
  8
0
 10
29.739
 20
9.34163
 11
29.9902
 21
8.62344
  0
LINE
  8
0
 10
29.9902
 20
8.62344
 11
30.0527
 21
7.86514
  0
LINE
  8
0
 10
30.0527
 20
7.86514
 11
29.9224
 21
7.11552
  0
LINE
  8
0
 10
29.9224
 20
7.11552
 11
29.6077
 21
6.42281
  0
LINE
  8
0
 10
29.6077
 20
6.42281
 11
29.1288
 21
5.83153
  0
LINE
  8
0
 10
29.1288
 20
5.83153
 11
28.5166
 21
5.37973
  0
LINE
  8
0
 10
28.5166
 20
5.37973
 11
27.8104
 21
5.09648
  0
LINE
  8
0
 10
27.8104
 20
5.09648
 11
27.0557
 21
5
  0
LINE
  8
0
 10
27.0557
 20
5
 11
-27.0557
 21
5
  0
LINE
  8
0
 10
70.4891
 20
3.64769
 11
70.1515
 21
3.78755
  0
LINE
  8
0
 10
70.1515
 20
3.78755
 11
69.8615
 21
4.01004
  0
LINE
  8
0
 10
69.8615
 20
4.01004
 11
69.639
 21
4.29999
  0
LINE
  8
0
 10
69.639
 20
4.29999
 11
69.4992
 21
4.63765
  0
LINE
  8
0
 10
69.4992
 20
4.63765
 11
69.4515
 21
5
  0
LINE
  8
0
 10
69.4515
 20
5
 11
69.4992
 21
5.36234
  0
LINE
  8
0
 10
69.4992
 20
5.36234
 11
69.639
 21
5.7
  0
LINE
  8
0
 10
69.639
 20
5.7
 11
69.8615
 21
5.98994
  0
LINE
  8
0
 10
69.8615
 20
5.98994
 11
70.1515
 21
6.21243
  0
LINE
  8
0
 10
70.1515
 20
6.21243
 11
70.4891
 21
6.35229
  0
LINE
  8
0
 10
70.4891
 20
6.35229
 11
70.8515
 21
6.39999
  0
LINE
  8
0
 10
70.8515
 20
6.39999
 11
71.2138
 21
6.35229
  0
LINE
  8
0
 10
71.2138
 20
6.35229
 11
71.5515
 21
6.21243
  0
LINE
  8
0
 10
71.5515
 20
6.21243
 11
71.8414
 21
5.98994
  0
LINE
  8
0
 10
71.8414
 20
5.98994
 11
72.0639
 21
5.7
  0
LINE
  8
0
 10
72.0639
 20
5.7
 11
72.2038
 21
5.36234
  0
LINE
  8
0
 10
72.2038
 20
5.36234
 11
72.2515
 21
5
  0
LINE
  8
0
 10
72.2515
 20
5
 11
72.2038
 21
4.63765
  0
LINE
  8
0
 10
72.2038
 20
4.63765
 11
72.0639
 21
4.29999
  0
LINE
  8
0
 10
72.0639
 20
4.29999
 11
71.8414
 21
4.01004
  0
LINE
  8
0
 10
71.8414
 20
4.01004
 11
71.5515
 21
3.78755
  0
LINE
  8
0
 10
71.5515
 20
3.78755
 11
71.2138
 21
3.64769
  0
LINE
  8
0
 10
71.2138
 20
3.64769
 11
70.8515
 21
3.59999
  0
LINE
  8
0
 10
70.8515
 20
3.59999
 11
70.4891
 21
3.64769
  0
LINE
  8
0
 10
-34.2138
 20
2.44769
 11
-34.5515
 21
2.58755
  0
LINE
  8
0
 10
-34.5515
 20
2.58755
 11
-34.8414
 21
2.81004
  0
LINE
  8
0
 10
-34.8414
 20
2.81004
 11
-35.0639
 21
3.09999
  0
LINE
  8
0
 10
-35.0639
 20
3.09999
 11
-35.2038
 21
3.43765
  0
LINE
  8
0
 10
-35.2038
 20
3.43765
 11
-35.2515
 21
3.79999
  0
LINE
  8
0
 10
-35.2515
 20
3.79999
 11
-35.2038
 21
4.16234
  0
LINE
  8
0
 10
-35.2038
 20
4.16234
 11
-35.0639
 21
4.5
  0
LINE
  8
0
 10
-35.0639
 20
4.5
 11
-34.8414
 21
4.78995
  0
LINE
  8
0
 10
-34.8414
 20
4.78995
 11
-34.5515
 21
5.01242
  0
LINE
  8
0
 10
-34.5515
 20
5.01242
 11
-34.2138
 21
5.15228
  0
LINE
  8
0
 10
-34.2138
 20
5.15228
 11
-33.8515
 21
5.2
  0
LINE
  8
0
 10
-33.8515
 20
5.2
 11
-33.4891
 21
5.15228
  0
LINE
  8
0
 10
-33.4891
 20
5.15228
 11
-33.1515
 21
5.01242
  0
LINE
  8
0
 10
-33.1515
 20
5.01242
 11
-32.8615
 21
4.78995
  0
LINE
  8
0
 10
-32.8615
 20
4.78995
 11
-32.639
 21
4.5
  0
LINE
  8
0
 10
-32.639
 20
4.5
 11
-32.4992
 21
4.16234
  0
LINE
  8
0
 10
-32.4992
 20
4.16234
 11
-32.4515
 21
3.79999
  0
LINE
  8
0
 10
-32.4515
 20
3.79999
 11
-32.4992
 21
3.43765
  0
LINE
  8
0
 10
-32.4992
 20
3.43765
 11
-32.639
 21
3.09999
  0
LINE
  8
0
 10
-32.639
 20
3.09999
 11
-32.8615
 21
2.81004
  0
LINE
  8
0
 10
-32.8615
 20
2.81004
 11
-33.1515
 21
2.58755
  0
LINE
  8
0
 10
-33.1515
 20
2.58755
 11
-33.4891
 21
2.44769
  0
LINE
  8
0
 10
-33.4891
 20
2.44769
 11
-33.8515
 21
2.39999
  0
LINE
  8
0
 10
-33.8515
 20
2.39999
 11
-34.2138
 21
2.44769
  0
LINE
  8
0
 10
33.4891
 20
2.44769
 11
33.1515
 21
2.58755
  0
LINE
  8
0
 10
33.1515
 20
2.58755
 11
32.8615
 21
2.81004
  0
LINE
  8
0
 10
32.8615
 20
2.81004
 11
32.639
 21
3.09999
  0
LINE
  8
0
 10
32.639
 20
3.09999
 11
32.4992
 21
3.43765
  0
LINE
  8
0
 10
32.4992
 20
3.43765
 11
32.4515
 21
3.79999
  0
LINE
  8
0
 10
32.4515
 20
3.79999
 11
32.4992
 21
4.16234
  0
LINE
  8
0
 10
32.4992
 20
4.16234
 11
32.639
 21
4.5
  0
LINE
  8
0
 10
32.639
 20
4.5
 11
32.8615
 21
4.78995
  0
LINE
  8
0
 10
32.8615
 20
4.78995
 11
33.1515
 21
5.01242
  0
LINE
  8
0
 10
33.1515
 20
5.01242
 11
33.4891
 21
5.15228
  0
LINE
  8
0
 10
33.4891
 20
5.15228
 11
33.8515
 21
5.2
  0
LINE
  8
0
 10
33.8515
 20
5.2
 11
34.2138
 21
5.15228
  0
LINE
  8
0
 10
34.2138
 20
5.15228
 11
34.5515
 21
5.01242
  0
LINE
  8
0
 10
34.5515
 20
5.01242
 11
34.8414
 21
4.78995
  0
LINE
  8
0
 10
34.8414
 20
4.78995
 11
35.0639
 21
4.5
  0
LINE
  8
0
 10
35.0639
 20
4.5
 11
35.2038
 21
4.16234
  0
LINE
  8
0
 10
35.2038
 20
4.16234
 11
35.2515
 21
3.79999
  0
LINE
  8
0
 10
35.2515
 20
3.79999
 11
35.2038
 21
3.43765
  0
LINE
  8
0
 10
35.2038
 20
3.43765
 11
35.0639
 21
3.09999
  0
LINE
  8
0
 10
35.0639
 20
3.09999
 11
34.8414
 21
2.81004
  0
LINE
  8
0
 10
34.8414
 20
2.81004
 11
34.5515
 21
2.58755
  0
LINE
  8
0
 10
34.5515
 20
2.58755
 11
34.2138
 21
2.44769
  0
LINE
  8
0
 10
34.2138
 20
2.44769
 11
33.8515
 21
2.39999
  0
LINE
  8
0
 10
33.8515
 20
2.39999
 11
33.4891
 21
2.44769
  0
ENDSEC
  0
SECTION
  2
OBJECTS
  0
DICTIONARY
  0
ENDSEC
  0
EOF
